<svg width="256" height="256" viewBox="0 0 344 384" xmlns="http://www.w3.org/2000/svg"><rect x="0" y="0" width="344" height="384" rx="8" fill="none"/><svg xmlns="http://www.w3.org/2000/svg" viewBox="0 0 344 384" fill="#fff" x="0" y="0" width="344" height="384"><path fill="#fff" d="M42.5 149q17.5 0 30 12.5T85 192t-12.5 30.5t-30 12.5t-30-12.5T0 192t12.5-30.5t30-12.5zm256 0q17.5 0 30 12.5T341 192t-12.5 30.5t-30 12.5t-30-12.5T256 192t12.5-30.5t30-12.5zm-128 0q17.5 0 30 12.5T213 192t-12.5 30.5t-30 12.5t-30-12.5T128 192t12.5-30.5t30-12.5z"/></svg></svg>